# xmcd
#
# Track frame offsets:
# 150
# 18115
# 36845
# 63439
# 85265
# 99802
# 129557
# 149142
# 169612
# 187637
# 210987
# 233550
#
# Disc length: 3419 seconds
#
#
# Revision: 0
# Processed by: cddbd v1.5.1PL0 Copyright (c) Steve Scherf et al.
# Submitted via: FreeRIP 2.70 
#
DISCID=8f0d590c
DTITLE=Cadillac Moon - Blue Moon Rhythm
DYEAR=2003
DGENRE=blues
TTITLE0=Three Strikes
TTITLE1=I Feel Good
TTITLE2=Don't Make Me Wonder
TTITLE3=Gotta Beat The Blues
TTITLE4=Writing On The Wall
TTITLE5=Back To The Neighborhood
TTITLE6=Mardi Gras In New York
TTITLE7=You Can Get The Blues
TTITLE8=21st Century Blues
TTITLE9=Till You Come Back To Me
TTITLE10=Why Me
TTITLE11=Hurricane
EXTD=Bluesfestradio.com
EXTT0=
EXTT1=
EXTT2=
EXTT3=
EXTT4=
EXTT5=
EXTT6=
EXTT7=
EXTT8=
EXTT9=
EXTT10=
EXTT11=
PLAYORDER=
